<svg width="206" height="211" viewBox="0 0 206 211" fill="none" xmlns="http://www.w3.org/2000/svg">
<path d="M44.7748 178.405C42.4216 164.389 31.7015 137.859 26.6356 126.346C16.8307 -3.40268 122.888 39.5798 177.142 77.2895C187.836 87.369 185.177 124.819 175 152.558C171.025 163.391 165.904 172.743 159.983 178.405C98.2118 237.473 47.7163 195.925 44.7748 178.405Z" fill="white" stroke="black" stroke-width="4"/>
<path d="M198.5 146.259C189.757 165.721 174.833 159.833 170.5 155.5L168 126.5C179.5 100.5 208.5 124 198.5 146.259Z" fill="white"/>
<path d="M173.414 154.845C172.633 154.064 171.367 154.064 170.586 154.845C169.805 155.626 169.805 156.892 170.586 157.673L173.414 154.845ZM198.5 146.259L200.324 147.079L200.324 147.079L198.5 146.259ZM170.586 157.673C173.096 160.184 178.12 162.865 183.839 162.167C189.732 161.448 195.763 157.231 200.324 147.079L196.676 145.439C192.493 154.749 187.442 157.698 183.354 158.197C179.092 158.717 175.237 156.668 173.414 154.845L170.586 157.673ZM200.324 147.079C205.759 134.981 200.595 122.558 192.489 116.665C188.408 113.698 183.408 112.26 178.512 113.555C173.586 114.857 169.216 118.806 166.171 125.691L169.829 127.309C172.534 121.193 176.102 118.329 179.535 117.422C182.999 116.506 186.779 117.459 190.136 119.9C196.905 124.821 201.241 135.278 196.676 145.439L200.324 147.079Z" fill="black"/>
<path d="M29.0001 133.5C12.6667 137.333 -4.50013 108.5 3.00008 76.5001C9.21311 49.9922 27.5001 32.6668 27.5001 41.5001C35.0003 9.5001 116.62 -26.3553 180 32.9998C211.5 62.5 208.833 105 195.5 121.5L181.5 117L178 124.5L167 128.5C161.167 139 162.4 159.4 180 173C166 167.166 137 153.3 167 128.5C153 139.7 139 124.5 136 121.5L138.5 126.5C125.3 128.757 121.5 124.107 117 121.5C114.6 127.5 117.334 131 120 132.5C70.9394 135.3 54.7246 106.333 63.5 89.5C62.756 90.9272 62.0913 88.2122 61.5 89.5C49.5 108.5 60.7736 117.273 65 121.5C42.6 120.7 34 108 36.5 95.5C25.5 107.5 27.5001 121.5 29.0001 133.5Z" fill="black"/>
<path d="M167 128.5L178 124.5L181.5 117L195.5 121.5C208.833 105 211.5 62.5 180 32.9998C116.62 -26.3553 35.0003 9.5001 27.5001 41.5001C27.5001 32.6668 9.21311 49.9922 3.00008 76.5001C-4.50013 108.5 12.6667 137.333 29.0001 133.5C27.5001 121.5 25.5 107.5 36.5 95.5C34 108 42.6 120.7 65 121.5C60.7736 117.273 49.5 108.5 61.5 89.5C62.0913 88.2122 62.756 90.9272 63.5 89.5C54.7246 106.333 70.9394 135.3 120 132.5C117.334 131 114.6 127.5 117 121.5C121.5 124.107 125.3 128.757 138.5 126.5L136 121.5C139 124.5 153 139.7 167 128.5ZM167 128.5C161.167 139 162.4 159.4 180 173C166 167.166 137 153.3 167 128.5Z" stroke="black"/>
<ellipse cx="64" cy="149" rx="6" ry="9" fill="black"/>
<ellipse cx="104" cy="149" rx="6" ry="9" fill="black"/>
<path d="M53 128.037C53.6667 126.537 56.5 123.637 62.5 124.037" stroke="black" stroke-width="4" stroke-linecap="round"/>
<g filter="url(#filter0_f_430_309)">
<ellipse cx="83.5" cy="163.5" rx="7.5" ry="3.5" fill="#FFDBDB" fill-opacity="0.52"/>
</g>
<g filter="url(#filter1_f_430_309)">
<circle cx="130" cy="160" r="18" fill="#FFDBDB" fill-opacity="0.52"/>
</g>
<g filter="url(#filter2_f_430_309)">
<ellipse cx="50.5" cy="164" rx="9.5" ry="12" fill="#FFDBDB" fill-opacity="0.52"/>
</g>
<path d="M71.8621 153C73.8161 151.8 86.7483 150.649 90.5 153.529M132.819 148.5L131.443 165.406C131.232 168.001 129.064 170 126.46 170H96.8413C94.2991 170 92.1617 168.093 91.8735 165.567L89.1077 141.327C88.7792 138.447 90.9603 135.892 93.8559 135.765L128.337 134.249C131.343 134.117 133.784 136.651 133.54 139.65L132.819 148.5ZM132.819 148.5L168.5 127M71.8621 141V165.272C71.8621 167.925 69.7901 170.116 67.1413 170.264L40.816 171.736C38.1705 171.884 35.869 169.943 35.5689 167.31L32.6345 141.566C32.2963 138.6 34.6166 136 37.6023 136H66.8621C69.6235 136 71.8621 138.239 71.8621 141Z" stroke="black" stroke-width="3" stroke-linecap="round"/>
<path d="M27.4996 134C19.8329 126.333 9.5 108.5 18.4999 85C16.3332 93 13.5 113.5 27.4996 134Z" fill="#717171"/>
<path d="M81.5 187.5C83.8333 188.5 89.9 189.5 95.5 185.5" stroke="black" stroke-width="4" stroke-linecap="round"/>
<path d="M62.0002 92.5C60.0002 88.8334 68 78 72.5001 77C62.2912 86 62.0002 92.5 62.0002 92.5Z" fill="#717171"/>
<defs>
<filter id="filter0_f_430_309" x="72" y="156" width="23" height="15" filterUnits="userSpaceOnUse" color-interpolation-filters="sRGB">
<feFlood flood-opacity="0" result="BackgroundImageFix"/>
<feBlend mode="normal" in="SourceGraphic" in2="BackgroundImageFix" result="shape"/>
<feGaussianBlur stdDeviation="2" result="effect1_foregroundBlur_430_309"/>
</filter>
<filter id="filter1_f_430_309" x="108" y="138" width="44" height="44" filterUnits="userSpaceOnUse" color-interpolation-filters="sRGB">
<feFlood flood-opacity="0" result="BackgroundImageFix"/>
<feBlend mode="normal" in="SourceGraphic" in2="BackgroundImageFix" result="shape"/>
<feGaussianBlur stdDeviation="2" result="effect1_foregroundBlur_430_309"/>
</filter>
<filter id="filter2_f_430_309" x="37" y="148" width="27" height="32" filterUnits="userSpaceOnUse" color-interpolation-filters="sRGB">
<feFlood flood-opacity="0" result="BackgroundImageFix"/>
<feBlend mode="normal" in="SourceGraphic" in2="BackgroundImageFix" result="shape"/>
<feGaussianBlur stdDeviation="2" result="effect1_foregroundBlur_430_309"/>
</filter>
</defs>
</svg>
