<svg width="1045" height="480" viewBox="0 0 1045 480" fill="none" xmlns="http://www.w3.org/2000/svg">
<path d="M616.742 28.8013C602.581 90.4569 621.683 201.917 666 205C708.305 207.943 688.359 240.117 674.863 244.371C690.45 254.52 713.891 256.699 674.5 268C625.827 281.963 534.312 248.011 494.313 229.147C494.099 229.046 493.921 228.918 493.755 228.75C485.502 220.328 468.98 203.48 467 201.5C465.157 199.656 463.03 180.538 453.572 178.209C452.301 177.896 451.23 176.755 451.437 175.463C457.231 139.194 448.08 80.0615 443 31.9995C437.987 -15.4299 549.356 3.33928 611.728 20.1308C615.478 21.1403 617.611 25.0168 616.742 28.8013Z" fill="black"/>
<path d="M666 205C621.683 201.917 602.581 90.4569 616.742 28.8013C617.611 25.0168 615.478 21.1403 611.728 20.1308C549.356 3.33928 437.987 -15.4299 443 31.9995C448.08 80.0615 457.231 139.194 451.437 175.463C451.23 176.755 452.301 177.896 453.572 178.209C463.03 180.538 465.157 199.656 467 201.5C468.98 203.48 485.502 220.328 493.755 228.75C493.921 228.918 494.099 229.046 494.313 229.147C534.312 248.011 625.827 281.963 674.5 268C723.3 254 675.667 254 666 235.5C666 267 723.5 209 666 205Z" stroke="black" stroke-width="3" stroke-linecap="round"/>
<path d="M645.5 397.5V375L318 406V425.5H564L645.5 397.5Z" fill="black" stroke="black"/>
<path d="M645.5 374.5L559.5 405.5L540.5 368L645.5 374.5Z" fill="black" stroke="white" stroke-width="5"/>
<path d="M726.5 303C677.5 144 638.5 148 603.5 154L500.5 162C488.167 160.667 460.1 161.4 446.5 175C432.9 188.6 402.5 245.667 389 272.5L480 365.5L512.5 370.5L618.343 334C625.491 340.208 634.897 353.793 632.5 374C661.5 373 743 354.5 726.5 303Z" fill="#BEDDFF" stroke="black" stroke-width="4" stroke-linecap="round"/>
<path d="M632.5 374C603.5 375 607 376 580.5 368C576.333 367.834 567.5 370 565.5 380C563.5 390 557 388.5 554 386.5C553.5 380 555.5 365.8 567.5 361C560 364 545.9 372.8 549.5 384C551.947 391.613 544.985 386.105 537.5 378.656C535.48 376.645 533.422 374.493 531.5 372.419C530.067 370.872 528.709 369.369 527.5 368C526.667 360.167 528.6 343 543 337C561 329.5 564 327.5 573.5 331.5C581.1 334.7 604.333 332.834 615 331.5C622 335.834 635.3 350.4 632.5 374Z" fill="white"/>
<path d="M537.5 378.656C544.985 386.105 551.947 391.613 549.5 384C545.9 372.8 560 364 567.5 361C555.5 365.8 553.5 380 554 386.5C557 388.5 563.5 390 565.5 380C567.5 370 576.333 367.834 580.5 368C607 376 603.5 375 632.5 374C635.3 350.4 622 335.834 615 331.5C604.333 332.834 581.1 334.7 573.5 331.5C564 327.5 561 329.5 543 337C528.6 343 526.667 360.167 527.5 368C528.709 369.369 530.067 370.872 531.5 372.419M537.5 378.656C536.667 373.271 538.4 361.2 552 356C547.167 357.771 537.5 364.78 537.5 378.656ZM537.5 378.656C535.48 376.645 533.422 374.493 531.5 372.419M531.5 372.419C532.167 365.28 535.1 350.5 541.5 348.5" stroke="black" stroke-width="4" stroke-linecap="round"/>
<path d="M570.5 143.5L573.5 105L508.5 132.5C509.5 133.167 510.9 137.8 508.5 151C505.5 167.5 460.5 173 508.5 178C546.9 182 587.834 163.667 603.5 154C575.5 158.8 569.834 149 570.5 143.5Z" fill="white" stroke="black" stroke-width="4" stroke-linecap="round"/>
<path d="M498.677 159.156C503.176 157.103 506.776 167.575 521.174 178.664C541.171 170.963 581.965 154.946 585.164 152.481C585.829 151.969 601.5 152.482 601.5 157.5C601.5 170.828 556.84 207.829 550 197C544 187.5 528.006 182.772 521.174 178.664C513.342 180.205 497.277 185.03 495.678 192.012C493.687 200.702 475.837 172.24 488.511 161.858C488.619 161.77 488.749 161.705 488.884 161.67L498.677 159.156Z" fill="#FFE3E3"/>
<path d="M521.174 178.664C506.776 167.575 503.176 157.103 498.677 159.156L488.884 161.67C488.749 161.705 488.619 161.77 488.511 161.858C475.837 172.24 493.687 200.702 495.678 192.012C497.277 185.03 513.342 180.205 521.174 178.664ZM521.174 178.664C528.006 182.772 544 187.5 550 197C556.84 207.829 601.5 170.828 601.5 157.5C601.5 152.482 585.829 151.969 585.164 152.481C581.965 154.946 541.171 170.963 521.174 178.664Z" stroke="black" stroke-width="3"/>
<path d="M577.5 229C588.7 199.4 588.833 155.333 587.5 137V96.5C599.5 103.333 619.8 132.4 605 194C591.152 251.636 593.442 270.286 596.798 273.13C597.025 273.262 597.26 273.385 597.5 273.5C597.264 273.446 597.028 273.326 596.798 273.13C589.922 269.16 588.686 257.79 589.201 247.802C585.146 288.351 594.977 306.085 601 310C590.2 308.4 587.5 295.667 587.5 289.5V302C579.5 290 566.3 258.6 577.5 229Z" fill="black"/>
<path d="M587.5 137C588.833 155.333 588.7 199.4 577.5 229C566.3 258.6 579.5 290 587.5 302V289.5C587.5 295.667 590.2 308.4 601 310C594.333 305.667 583 284.4 591 234C589 243.167 586 268 597.5 273.5C593.833 272.667 590.2 255.6 605 194C619.8 132.4 599.5 103.333 587.5 96.5V137Z" stroke="black" stroke-width="3" stroke-linecap="round"/>
<path d="M170 383.041C179.5 377.374 212.1 358.245 240.5 374.245C243.167 367.912 261 373.245 261 373.245C261 373.245 287 381.041 298 383.041L266.5 420.542C243.805 413.953 215.142 398.874 197.935 407.512L191.5 412.542C179.167 404.875 133.6 408.542 112 420.542L170 383.041Z" fill="white"/>
<path d="M240.5 374.245C212.1 358.245 179.5 377.374 170 383.041L112 420.542C133.6 408.542 179.167 404.875 191.5 412.542M240.5 374.245L191.5 412.542M240.5 374.245C243.167 367.912 261 373.245 261 373.245C261 373.245 287 381.041 298 383.041L266.5 420.542C240.667 413.042 207.1 394.542 191.5 412.542" stroke="black" stroke-width="3" stroke-linecap="round"/>
<path d="M991 270L727.5 397.5H709L699 121.5L966 5L985.017 14.5L991 270Z" fill="black"/>
<path d="M727.5 397.5L719.5 137L985.017 14.5M727.5 397.5L991 270L985.017 14.5M727.5 397.5H709L699 121.5L966 5L985.017 14.5" stroke="white" stroke-width="7" stroke-linecap="round"/>
<path d="M721.5 473H944.5L1037 372.5H884.5L721.5 473Z" fill="black" stroke="white" stroke-width="7" stroke-linecap="round"/>
<path d="M910 185.5L872.5 207L910 446L967.5 386L910 185.5Z" fill="black" stroke="white" stroke-width="7" stroke-linecap="round"/>
<path d="M219 92.5C277 92.5 300.833 147.833 305.5 175.5H136C139.5 147.833 161 92.5 219 92.5Z" fill="black" stroke="white"/>
<path d="M91.5 475.5C114.765 475.5 135.952 473.358 151.431 469.835C159.138 468.082 165.65 465.937 170.333 463.418C172.672 462.16 174.745 460.708 176.278 459.004C177.832 457.276 179 455.084 179 452.5C179 449.916 177.832 447.724 176.278 445.996C174.745 444.292 172.672 442.84 170.333 441.582C165.65 439.063 159.138 436.918 151.431 435.165C135.952 431.642 114.765 429.5 91.5 429.5C68.235 429.5 47.0482 431.642 31.5691 435.165C23.8617 436.918 17.3496 439.063 12.6668 441.582C10.3282 442.84 8.25477 444.292 6.7222 445.996C5.1683 447.724 4 449.916 4 452.5C4 455.084 5.1683 457.276 6.7222 459.004C8.25477 460.708 10.3282 462.16 12.6668 463.418C17.3496 465.937 23.8617 468.082 31.5691 469.835C47.0482 473.358 68.235 475.5 91.5 475.5Z" fill="black" stroke="white" stroke-width="8"/>
<path d="M102.5 76L216.5 93.5C219.3 99.9 215.833 103.333 213 104L114 92V441H71L102.5 76Z" fill="black" stroke="white" stroke-width="6"/>
<path d="M306 176C306 176 271.668 176 225 176C178.332 176 137 176 137 176C137 176 174.832 155.5 221.5 155.5C268.168 155.5 306 176 306 176Z" fill="#FFEE00"/>
</svg>
