<svg width="2755" height="716" viewBox="0 0 2755 716" fill="none" xmlns="http://www.w3.org/2000/svg">
<g clip-path="url(#clip0_370_2)">
<rect x="0.5" y="1.5" width="162" height="714" fill="white" stroke="#D9D9D9"/>
<rect x="163.5" y="1.5" width="160" height="714" fill="white" stroke="#D9D9D9"/>
<rect x="324.5" y="1.5" width="161" height="714" fill="white" stroke="#D9D9D9"/>
<rect x="486.5" y="1.5" width="162" height="714" fill="white" stroke="#D9D9D9"/>
<rect x="649.5" y="1.5" width="161" height="714" fill="white" stroke="#D9D9D9"/>
<rect x="811.5" y="1.5" width="160" height="714" fill="white" stroke="#D9D9D9"/>
<rect x="972.5" y="1.5" width="162" height="714" fill="white" stroke="#D9D9D9"/>
<rect x="1135.5" y="1.5" width="161" height="714" fill="white" stroke="#D9D9D9"/>
<rect x="1459.5" y="1.5" width="161" height="714" fill="white" stroke="#D9D9D9"/>
<rect x="1783.5" y="1.5" width="162" height="714" fill="white" stroke="#D9D9D9"/>
<rect x="2107.5" y="1.5" width="161" height="714" fill="white" stroke="#D9D9D9"/>
<rect x="1297.5" y="1.5" width="161" height="714" fill="white" stroke="#D9D9D9"/>
<rect x="1621.5" y="1.5" width="161" height="714" fill="white" stroke="#D9D9D9"/>
<rect x="1946.5" y="1.5" width="161" height="714" fill="white" stroke="#D9D9D9"/>
<rect x="2269.5" y="1.5" width="161" height="714" fill="white" stroke="#D9D9D9"/>
<rect x="2431.5" y="1.5" width="161" height="714" fill="white" stroke="#D9D9D9"/>
<rect x="2593.5" y="1.5" width="161" height="714" fill="white" stroke="#D9D9D9"/>
<rect x="109" width="105" height="392" fill="#484848"/>
<rect x="272" width="104" height="392" fill="#484848"/>
<rect x="595" width="106" height="392" fill="#484848"/>
<rect x="1730" width="106" height="392" fill="#484848"/>
<rect x="758" width="104" height="392" fill="#484848"/>
<rect x="1893" width="104" height="392" fill="#484848"/>
<rect x="920" width="105" height="392" fill="#484848"/>
<rect x="2055" width="105" height="392" fill="#484848"/>
<rect x="1244" width="104" height="392" fill="#484848"/>
<rect x="2378" width="104" height="392" fill="#484848"/>
<rect x="1406" width="105" height="392" fill="#484848"/>
<rect x="2540" width="105" height="392" fill="#484848"/>
</g>
<defs>
<clipPath id="clip0_370_2">
<rect width="2755" height="716" fill="white"/>
</clipPath>
</defs>
</svg>
