<svg width="224" height="260" viewBox="0 0 224 260" fill="none" xmlns="http://www.w3.org/2000/svg">
<path d="M44.5873 227.405C42.2341 213.389 31.514 186.859 26.4481 175.346C16.6432 45.5973 122.7 88.5798 176.954 126.29C187.648 136.369 184.99 173.819 174.812 201.558C170.838 212.391 165.716 221.743 159.795 227.405C98.0243 286.473 47.5288 244.925 44.5873 227.405Z" fill="white" stroke="black" stroke-width="4"/>
<path d="M28.8126 182.5C12.4792 186.333 -4.68763 157.5 2.81258 125.5C9.02561 98.9922 27.3126 81.6668 27.3126 90.5001C34.8128 58.5001 116.433 22.6447 179.812 81.9998C211.313 111.5 208.646 154 195.312 170.5L181.313 166L177.813 173.5L166.812 177.5C160.979 188 162.212 208.4 179.812 222C165.812 216.166 136.812 202.3 166.812 177.5C152.812 188.7 138.812 173.5 135.812 170.5L138.312 175.5C125.112 177.757 121.313 173.107 116.813 170.5C114.413 176.5 117.146 180 119.813 181.5C70.7519 184.3 54.5371 155.333 63.3125 138.5C62.5685 139.927 61.9038 137.212 61.3125 138.5C49.3125 157.5 60.5861 166.273 64.8125 170.5C42.4125 169.7 33.8125 157 36.3125 144.5C25.3125 156.5 27.3126 170.5 28.8126 182.5Z" fill="black"/>
<path d="M166.812 177.5L177.813 173.5L181.313 166L195.312 170.5C208.646 154 211.313 111.5 179.812 81.9998C116.433 22.6447 34.8128 58.5001 27.3126 90.5001C27.3126 81.6668 9.02561 98.9922 2.81258 125.5C-4.68763 157.5 12.4792 186.333 28.8126 182.5C27.3126 170.5 25.3125 156.5 36.3125 144.5C33.8125 157 42.4125 169.7 64.8125 170.5C60.5861 166.273 49.3125 157.5 61.3125 138.5C61.9038 137.212 62.5685 139.927 63.3125 138.5C54.5371 155.333 70.7519 184.3 119.813 181.5C117.146 180 114.413 176.5 116.813 170.5C121.313 173.107 125.112 177.757 138.312 175.5L135.812 170.5C138.812 173.5 152.812 188.7 166.812 177.5ZM166.812 177.5C160.979 188 162.212 208.4 179.812 222C165.812 216.166 136.812 202.3 166.812 177.5Z" stroke="black"/>
<path d="M198.312 195.259C189.569 214.721 174.646 208.833 170.312 204.5L167.812 175.5C179.312 149.5 208.312 173 198.312 195.259Z" fill="white"/>
<path d="M27.3121 183C19.6454 175.333 9.3125 157.5 18.3124 134C16.1457 142 13.3125 162.5 27.3121 183Z" fill="#717171"/>
<path d="M173.227 203.845C172.446 203.064 171.179 203.064 170.398 203.845C169.617 204.626 169.617 205.892 170.398 206.673L173.227 203.845ZM198.312 195.259L200.137 196.079L200.137 196.079L198.312 195.259ZM170.398 206.673C172.909 209.184 177.932 211.865 183.651 211.167C189.544 210.448 195.576 206.231 200.137 196.079L196.488 194.439C192.306 203.749 187.254 206.698 183.167 207.197C178.904 207.717 175.05 205.668 173.227 203.845L170.398 206.673ZM200.137 196.079C205.572 183.981 200.407 171.558 192.301 165.665C188.221 162.698 183.22 161.26 178.325 162.555C173.398 163.857 169.029 167.806 165.983 174.691L169.642 176.309C172.346 170.193 175.914 167.329 179.347 166.422C182.811 165.506 186.592 166.459 189.949 168.9C196.718 173.821 201.053 184.278 196.488 194.439L200.137 196.079Z" fill="black"/>
<path d="M52.8125 177.037C53.4792 175.537 56.3125 172.637 62.3125 173.037" stroke="black" stroke-width="4" stroke-linecap="round"/>
<path d="M95.3125 235.395C92.9792 234.395 86.3125 236.5 81.3125 237.395" stroke="black" stroke-width="4" stroke-linecap="round"/>
<g filter="url(#filter0_f_430_303)">
<ellipse cx="83.3125" cy="212.5" rx="7.5" ry="3.5" fill="#D0D0D0" fill-opacity="0.52"/>
</g>
<g filter="url(#filter1_f_430_303)">
<circle cx="115.812" cy="211" r="18" fill="#B9B9B9" fill-opacity="0.52"/>
</g>
<g filter="url(#filter2_f_430_303)">
<path d="M68.8125 209.5C68.8125 218.613 62.9922 226 55.8125 226C48.6328 226 42.8125 218.613 42.8125 209.5C42.8125 200.387 48.6328 193 55.8125 193C62.9922 193 68.8125 200.387 68.8125 209.5Z" fill="#B9B9B9" fill-opacity="0.52"/>
</g>
<path d="M71.6746 202C73.6286 200.8 86.5608 199.649 90.3125 202.529M132.632 197.5L131.256 214.406C131.044 217.001 128.876 219 126.272 219H96.6538C94.1116 219 91.9742 217.093 91.686 214.567L88.9202 190.327C88.5917 187.447 90.7728 184.892 93.6684 184.765L128.149 183.249C131.156 183.117 133.597 185.651 133.353 188.65L132.632 197.5ZM132.632 197.5L168.312 176M71.6746 190V214.272C71.6746 216.925 69.6026 219.116 66.9538 219.264L40.6285 220.736C37.983 220.884 35.6815 218.943 35.3814 216.31L32.447 190.566C32.1088 187.6 34.4291 185 37.4148 185H66.6746C69.436 185 71.6746 187.239 71.6746 190Z" stroke="black" stroke-width="3" stroke-linecap="round"/>
<path d="M61.8127 141.5C59.8127 137.833 67.8125 127 72.3126 126C62.1037 135 61.8127 141.5 61.8127 141.5Z" fill="#717171"/>
<ellipse cx="63.8125" cy="198" rx="6" ry="9" fill="black"/>
<ellipse cx="103.812" cy="198" rx="6" ry="9" fill="black"/>
<ellipse cx="161.696" cy="59.1728" rx="48" ry="41" transform="rotate(29.1105 161.696 59.1728)" fill="black"/>
<defs>
<filter id="filter0_f_430_303" x="71.8125" y="205" width="23" height="15" filterUnits="userSpaceOnUse" color-interpolation-filters="sRGB">
<feFlood flood-opacity="0" result="BackgroundImageFix"/>
<feBlend mode="normal" in="SourceGraphic" in2="BackgroundImageFix" result="shape"/>
<feGaussianBlur stdDeviation="2" result="effect1_foregroundBlur_430_303"/>
</filter>
<filter id="filter1_f_430_303" x="93.8125" y="189" width="44" height="44" filterUnits="userSpaceOnUse" color-interpolation-filters="sRGB">
<feFlood flood-opacity="0" result="BackgroundImageFix"/>
<feBlend mode="normal" in="SourceGraphic" in2="BackgroundImageFix" result="shape"/>
<feGaussianBlur stdDeviation="2" result="effect1_foregroundBlur_430_303"/>
</filter>
<filter id="filter2_f_430_303" x="38.8125" y="189" width="34" height="41" filterUnits="userSpaceOnUse" color-interpolation-filters="sRGB">
<feFlood flood-opacity="0" result="BackgroundImageFix"/>
<feBlend mode="normal" in="SourceGraphic" in2="BackgroundImageFix" result="shape"/>
<feGaussianBlur stdDeviation="2" result="effect1_foregroundBlur_430_303"/>
</filter>
</defs>
</svg>
