<svg width="1045" height="479" viewBox="0 0 1045 479" fill="none" xmlns="http://www.w3.org/2000/svg">
<ellipse cx="220" cy="383" rx="31" ry="10" fill="#393939"/>
<rect x="189" y="301" width="62" height="82" fill="#393939"/>
<ellipse cx="220" cy="302" rx="31" ry="10" fill="#D9D9D9"/>
<ellipse cx="220" cy="302" rx="29" ry="9" fill="#A6A6A6"/>
<ellipse cx="236.5" cy="301.5" rx="7.5" ry="3.5" fill="#383838"/>
<path d="M193.656 350V339.818H196.42V343.795H200.08V339.818H202.844V350H200.08V346.023H196.42V350H193.656ZM214.02 344.909C214.02 346.043 213.799 346.999 213.359 347.778C212.918 348.553 212.323 349.142 211.574 349.543C210.825 349.94 209.99 350.139 209.068 350.139C208.14 350.139 207.302 349.939 206.553 349.538C205.807 349.133 205.214 348.543 204.773 347.768C204.335 346.989 204.116 346.036 204.116 344.909C204.116 343.776 204.335 342.821 204.773 342.045C205.214 341.267 205.807 340.678 206.553 340.281C207.302 339.879 208.14 339.679 209.068 339.679C209.99 339.679 210.825 339.879 211.574 340.281C212.323 340.678 212.918 341.267 213.359 342.045C213.799 342.821 214.02 343.776 214.02 344.909ZM211.176 344.909C211.176 344.299 211.095 343.786 210.933 343.368C210.773 342.947 210.536 342.629 210.222 342.413C209.91 342.195 209.526 342.085 209.068 342.085C208.611 342.085 208.225 342.195 207.91 342.413C207.598 342.629 207.361 342.947 207.199 343.368C207.04 343.786 206.96 344.299 206.96 344.909C206.96 345.519 207.04 346.034 207.199 346.455C207.361 346.873 207.598 347.191 207.91 347.41C208.225 347.625 208.611 347.733 209.068 347.733C209.526 347.733 209.91 347.625 210.222 347.41C210.536 347.191 210.773 346.873 210.933 346.455C211.095 346.034 211.176 345.519 211.176 344.909ZM214.542 342.045V339.818H223.391V342.045H220.329V350H217.604V342.045H214.542ZM229.92 343C229.894 342.669 229.769 342.41 229.547 342.224C229.329 342.039 228.996 341.946 228.548 341.946C228.263 341.946 228.029 341.981 227.847 342.05C227.668 342.117 227.536 342.208 227.449 342.324C227.363 342.44 227.318 342.572 227.315 342.722C227.309 342.844 227.33 342.955 227.38 343.055C227.433 343.151 227.516 343.239 227.628 343.318C227.741 343.394 227.885 343.464 228.061 343.527C228.237 343.59 228.445 343.646 228.687 343.696L229.523 343.875C230.086 343.994 230.568 344.152 230.969 344.347C231.37 344.543 231.698 344.773 231.954 345.038C232.209 345.3 232.396 345.595 232.515 345.923C232.638 346.251 232.701 346.609 232.704 346.997C232.701 347.667 232.534 348.233 232.202 348.697C231.871 349.161 231.397 349.514 230.78 349.756C230.167 349.998 229.43 350.119 228.568 350.119C227.683 350.119 226.911 349.988 226.251 349.727C225.595 349.465 225.085 349.062 224.72 348.518C224.359 347.972 224.176 347.272 224.173 346.42H226.798C226.815 346.732 226.893 346.994 227.032 347.206C227.171 347.418 227.367 347.579 227.618 347.688C227.874 347.798 228.177 347.852 228.528 347.852C228.823 347.852 229.07 347.816 229.269 347.743C229.468 347.67 229.619 347.569 229.721 347.44C229.824 347.31 229.877 347.163 229.881 346.997C229.877 346.841 229.826 346.705 229.726 346.589C229.63 346.47 229.471 346.364 229.249 346.271C229.027 346.175 228.727 346.086 228.349 346.003L227.335 345.784C226.434 345.589 225.723 345.262 225.202 344.805C224.685 344.344 224.428 343.716 224.432 342.92C224.428 342.274 224.601 341.709 224.949 341.225C225.3 340.738 225.786 340.358 226.405 340.087C227.028 339.815 227.743 339.679 228.548 339.679C229.37 339.679 230.081 339.817 230.681 340.092C231.281 340.367 231.743 340.754 232.068 341.255C232.396 341.752 232.562 342.334 232.565 343H229.92ZM236.52 339.818V350H233.756V339.818H236.52ZM240.793 339.818L242.464 342.781H242.543L244.233 339.818H247.316L244.273 344.909L247.435 350H244.273L242.543 346.977H242.464L240.733 350H237.591L240.714 344.909L237.691 339.818H240.793Z" fill="white"/>
<ellipse cx="144" cy="384" rx="31" ry="10" fill="#393939"/>
<rect x="113" y="302" width="62" height="82" fill="#393939"/>
<ellipse cx="144" cy="303" rx="31" ry="10" fill="#D9D9D9"/>
<ellipse cx="144" cy="303" rx="29" ry="9" fill="#A6A6A6"/>
<ellipse cx="160.5" cy="302.5" rx="7.5" ry="3.5" fill="#383838"/>
<path d="M117.656 351V340.818H120.42V344.795H124.08V340.818H126.844V351H124.08V347.023H120.42V351H117.656ZM138.02 345.909C138.02 347.043 137.799 347.999 137.359 348.778C136.918 349.553 136.323 350.142 135.574 350.543C134.825 350.94 133.99 351.139 133.068 351.139C132.14 351.139 131.302 350.939 130.553 350.538C129.807 350.133 129.214 349.543 128.773 348.768C128.335 347.989 128.116 347.036 128.116 345.909C128.116 344.776 128.335 343.821 128.773 343.045C129.214 342.267 129.807 341.678 130.553 341.281C131.302 340.879 132.14 340.679 133.068 340.679C133.99 340.679 134.825 340.879 135.574 341.281C136.323 341.678 136.918 342.267 137.359 343.045C137.799 343.821 138.02 344.776 138.02 345.909ZM135.176 345.909C135.176 345.299 135.095 344.786 134.933 344.368C134.773 343.947 134.536 343.629 134.222 343.413C133.91 343.195 133.526 343.085 133.068 343.085C132.611 343.085 132.225 343.195 131.91 343.413C131.598 343.629 131.361 343.947 131.199 344.368C131.04 344.786 130.96 345.299 130.96 345.909C130.96 346.519 131.04 347.034 131.199 347.455C131.361 347.873 131.598 348.191 131.91 348.41C132.225 348.625 132.611 348.733 133.068 348.733C133.526 348.733 133.91 348.625 134.222 348.41C134.536 348.191 134.773 347.873 134.933 347.455C135.095 347.034 135.176 346.519 135.176 345.909ZM138.542 343.045V340.818H147.391V343.045H144.329V351H141.604V343.045H138.542ZM153.92 344C153.894 343.669 153.769 343.41 153.547 343.224C153.329 343.039 152.996 342.946 152.548 342.946C152.263 342.946 152.029 342.981 151.847 343.05C151.668 343.117 151.536 343.208 151.449 343.324C151.363 343.44 151.318 343.572 151.315 343.722C151.309 343.844 151.33 343.955 151.38 344.055C151.433 344.151 151.516 344.239 151.628 344.318C151.741 344.394 151.885 344.464 152.061 344.527C152.237 344.59 152.445 344.646 152.687 344.696L153.523 344.875C154.086 344.994 154.568 345.152 154.969 345.347C155.37 345.543 155.698 345.773 155.954 346.038C156.209 346.3 156.396 346.595 156.515 346.923C156.638 347.251 156.701 347.609 156.704 347.997C156.701 348.667 156.534 349.233 156.202 349.697C155.871 350.161 155.397 350.514 154.78 350.756C154.167 350.998 153.43 351.119 152.568 351.119C151.683 351.119 150.911 350.988 150.251 350.727C149.595 350.465 149.085 350.062 148.72 349.518C148.359 348.972 148.176 348.272 148.173 347.42H150.798C150.815 347.732 150.893 347.994 151.032 348.206C151.171 348.418 151.367 348.579 151.618 348.688C151.874 348.798 152.177 348.852 152.528 348.852C152.823 348.852 153.07 348.816 153.269 348.743C153.468 348.67 153.619 348.569 153.721 348.44C153.824 348.31 153.877 348.163 153.881 347.997C153.877 347.841 153.826 347.705 153.726 347.589C153.63 347.47 153.471 347.364 153.249 347.271C153.027 347.175 152.727 347.086 152.349 347.003L151.335 346.784C150.434 346.589 149.723 346.262 149.202 345.805C148.685 345.344 148.428 344.716 148.432 343.92C148.428 343.274 148.601 342.709 148.949 342.225C149.3 341.738 149.786 341.358 150.405 341.087C151.028 340.815 151.743 340.679 152.548 340.679C153.37 340.679 154.081 340.817 154.681 341.092C155.281 341.367 155.743 341.754 156.068 342.255C156.396 342.752 156.562 343.334 156.565 344H153.92ZM160.52 340.818V351H157.756V340.818H160.52ZM164.793 340.818L166.464 343.781H166.543L168.233 340.818H171.316L168.273 345.909L171.435 351H168.273L166.543 347.977H166.464L164.733 351H161.591L164.714 345.909L161.691 340.818H164.793Z" fill="white"/>
<path d="M645.5 396.5V374L318 405V424.5H564L645.5 396.5Z" fill="black" stroke="black"/>
<path d="M645.5 373.5L559.5 404.5L540.5 367L645.5 373.5Z" fill="black" stroke="white" stroke-width="5"/>
<path d="M726.5 302C677.5 143 638.5 147 603.5 153L500.5 161C488.167 159.667 460.1 160.4 446.5 174C432.9 187.6 402.5 244.667 389 271.5L480 364.5L512.5 369.5L618.343 333C625.491 339.208 634.897 352.793 632.5 373C661.5 372 743 353.5 726.5 302Z" fill="black" stroke="white" stroke-width="4" stroke-linecap="round"/>
<path d="M632.5 373C603.5 374 607 375 580.5 367C576.333 366.834 567.5 369 565.5 379C563.5 389 557 387.5 554 385.5C553.5 379 555.5 364.8 567.5 360C560 363 545.9 371.8 549.5 383C551.947 390.613 544.985 385.105 537.5 377.656C535.48 375.645 533.422 373.493 531.5 371.419C530.067 369.872 528.709 368.369 527.5 367C526.667 359.167 528.6 342 543 336C561 328.5 564 326.5 573.5 330.5C581.1 333.7 604.333 331.834 615 330.5C622 334.834 635.3 349.4 632.5 373Z" fill="white"/>
<path d="M537.5 377.656C544.985 385.105 551.947 390.613 549.5 383C545.9 371.8 560 363 567.5 360C555.5 364.8 553.5 379 554 385.5C557 387.5 563.5 389 565.5 379C567.5 369 576.333 366.834 580.5 367C607 375 603.5 374 632.5 373C635.3 349.4 622 334.834 615 330.5C604.333 331.834 581.1 333.7 573.5 330.5C564 326.5 561 328.5 543 336C528.6 342 526.667 359.167 527.5 367C528.709 368.369 530.067 369.872 531.5 371.419M537.5 377.656C536.667 372.271 538.4 360.2 552 355C547.167 356.771 537.5 363.78 537.5 377.656ZM537.5 377.656C535.48 375.645 533.422 373.493 531.5 371.419M531.5 371.419C532.167 364.28 535.1 349.5 541.5 347.5" stroke="black" stroke-width="4" stroke-linecap="round"/>
<path d="M599.972 152.946C586.523 152.525 577.952 149.687 572.5 146C561.131 138.311 558.245 123.24 557.764 109.523L557.5 102L489.5 134C490.5 134.667 510.9 136.8 508.5 150C505.5 166.5 460.5 172 508.5 177C544.638 180.764 583.019 164.75 600.474 154.793C601.349 154.293 600.979 152.977 599.972 152.946Z" fill="white" stroke="black" stroke-width="4" stroke-linecap="round"/>
<path d="M991 269L727.5 396.5H709L699 120.5L966 4L985.017 13.5L991 269Z" fill="black"/>
<path d="M727.5 396.5L719.5 136L985.017 13.5M727.5 396.5L991 269L985.017 13.5M727.5 396.5H709L699 120.5L966 4L985.017 13.5" stroke="white" stroke-width="7" stroke-linecap="round"/>
<path d="M721.5 472H944.5L1037 371.5H884.5L721.5 472Z" fill="black" stroke="white" stroke-width="7" stroke-linecap="round"/>
<path d="M910 184.5L872.5 206L910 445L967.5 385L910 184.5Z" fill="black" stroke="white" stroke-width="7" stroke-linecap="round"/>
<path d="M219 91.5C277 91.5 300.833 146.833 305.5 174.5H136C139.5 146.833 161 91.5 219 91.5Z" fill="black" stroke="white"/>
<path d="M91.5 474.5C114.765 474.5 135.952 472.358 151.431 468.835C159.138 467.082 165.65 464.937 170.333 462.418C172.672 461.16 174.745 459.708 176.278 458.004C177.832 456.276 179 454.084 179 451.5C179 448.916 177.832 446.724 176.278 444.996C174.745 443.292 172.672 441.84 170.333 440.582C165.65 438.063 159.138 435.918 151.431 434.165C135.952 430.642 114.765 428.5 91.5 428.5C68.235 428.5 47.0482 430.642 31.5691 434.165C23.8617 435.918 17.3496 438.063 12.6668 440.582C10.3282 441.84 8.25477 443.292 6.7222 444.996C5.1683 446.724 4 448.916 4 451.5C4 454.084 5.1683 456.276 6.7222 458.004C8.25477 459.708 10.3282 461.16 12.6668 462.418C17.3496 464.937 23.8617 467.082 31.5691 468.835C47.0482 472.358 68.235 474.5 91.5 474.5Z" fill="black" stroke="white" stroke-width="8"/>
<path d="M102.5 75L216.5 92.5C219.3 98.9 215.833 102.333 213 103L114 91V440H71L102.5 75Z" fill="black" stroke="white" stroke-width="6"/>
<path d="M306 175C306 175 271.668 175 225 175C178.332 175 137 175 137 175C137 175 174.832 154.5 221.5 154.5C268.168 154.5 306 175 306 175Z" fill="#FFEE00"/>
<ellipse cx="635" cy="449" rx="31" ry="10" fill="#393939"/>
<rect x="604" y="367" width="62" height="82" fill="#393939"/>
<ellipse cx="635" cy="368" rx="31" ry="10" fill="#D9D9D9"/>
<ellipse cx="635" cy="368" rx="29" ry="9" fill="#A6A6A6"/>
<ellipse cx="651.5" cy="367.5" rx="7.5" ry="3.5" fill="#383838"/>
<path d="M608.656 416V405.818H611.42V409.795H615.08V405.818H617.844V416H615.08V412.023H611.42V416H608.656ZM629.02 410.909C629.02 412.043 628.799 412.999 628.359 413.778C627.918 414.553 627.323 415.142 626.574 415.543C625.825 415.94 624.99 416.139 624.068 416.139C623.14 416.139 622.302 415.939 621.553 415.538C620.807 415.133 620.214 414.543 619.773 413.768C619.335 412.989 619.116 412.036 619.116 410.909C619.116 409.776 619.335 408.821 619.773 408.045C620.214 407.267 620.807 406.678 621.553 406.281C622.302 405.879 623.14 405.679 624.068 405.679C624.99 405.679 625.825 405.879 626.574 406.281C627.323 406.678 627.918 407.267 628.359 408.045C628.799 408.821 629.02 409.776 629.02 410.909ZM626.176 410.909C626.176 410.299 626.095 409.786 625.933 409.368C625.773 408.947 625.536 408.629 625.222 408.413C624.91 408.195 624.526 408.085 624.068 408.085C623.611 408.085 623.225 408.195 622.91 408.413C622.598 408.629 622.361 408.947 622.199 409.368C622.04 409.786 621.96 410.299 621.96 410.909C621.96 411.519 622.04 412.034 622.199 412.455C622.361 412.873 622.598 413.191 622.91 413.41C623.225 413.625 623.611 413.733 624.068 413.733C624.526 413.733 624.91 413.625 625.222 413.41C625.536 413.191 625.773 412.873 625.933 412.455C626.095 412.034 626.176 411.519 626.176 410.909ZM629.542 408.045V405.818H638.391V408.045H635.329V416H632.604V408.045H629.542ZM644.92 409C644.894 408.669 644.769 408.41 644.547 408.224C644.329 408.039 643.996 407.946 643.548 407.946C643.263 407.946 643.029 407.981 642.847 408.05C642.668 408.117 642.536 408.208 642.449 408.324C642.363 408.44 642.318 408.572 642.315 408.722C642.309 408.844 642.33 408.955 642.38 409.055C642.433 409.151 642.516 409.239 642.628 409.318C642.741 409.394 642.885 409.464 643.061 409.527C643.237 409.59 643.445 409.646 643.687 409.696L644.523 409.875C645.086 409.994 645.568 410.152 645.969 410.347C646.37 410.543 646.698 410.773 646.954 411.038C647.209 411.3 647.396 411.595 647.515 411.923C647.638 412.251 647.701 412.609 647.704 412.997C647.701 413.667 647.534 414.233 647.202 414.697C646.871 415.161 646.397 415.514 645.78 415.756C645.167 415.998 644.43 416.119 643.568 416.119C642.683 416.119 641.911 415.988 641.251 415.727C640.595 415.465 640.085 415.062 639.72 414.518C639.359 413.972 639.176 413.272 639.173 412.42H641.798C641.815 412.732 641.893 412.994 642.032 413.206C642.171 413.418 642.367 413.579 642.618 413.688C642.874 413.798 643.177 413.852 643.528 413.852C643.823 413.852 644.07 413.816 644.269 413.743C644.468 413.67 644.619 413.569 644.721 413.44C644.824 413.31 644.877 413.163 644.881 412.997C644.877 412.841 644.826 412.705 644.726 412.589C644.63 412.47 644.471 412.364 644.249 412.271C644.027 412.175 643.727 412.086 643.349 412.003L642.335 411.784C641.434 411.589 640.723 411.262 640.202 410.805C639.685 410.344 639.428 409.716 639.432 408.92C639.428 408.274 639.601 407.709 639.949 407.225C640.3 406.738 640.786 406.358 641.405 406.087C642.028 405.815 642.743 405.679 643.548 405.679C644.37 405.679 645.081 405.817 645.681 406.092C646.281 406.367 646.743 406.754 647.068 407.255C647.396 407.752 647.562 408.334 647.565 409H644.92ZM651.52 405.818V416H648.756V405.818H651.52ZM655.793 405.818L657.464 408.781H657.543L659.233 405.818H662.316L659.273 410.909L662.435 416H659.273L657.543 412.977H657.464L655.733 416H652.591L655.714 410.909L652.691 405.818H655.793Z" fill="white"/>
</svg>
